<svg width="99" height="21" viewBox="0 0 99 21" fill="none" xmlns="http://www.w3.org/2000/svg">
<path d="M14.34 11.36H10.54V5.98H14.34V11.36ZM11.28 1.28L7.44 0.919999V5.42H3.9L0.62 4.18V13.94H1.06C2.32 13.94 3.68 13.26 3.68 12.96V11.92H7.44V19.9H8.02C9.2 19.9 10.54 19.14 10.54 18.84V11.92H14.34V13.6H14.88C15.88 13.6 17.42 13.08 17.44 12.92V6.48C17.86 6.4 18.1 6.2 18.22 6.04L15.48 3.96L14.16 5.42H10.54V1.86C11.1 1.78 11.24 1.56 11.28 1.28ZM3.68 11.36V5.98H7.44V11.36H3.68ZM35.26 2.82L33.94 4.6H32.18L32.8 2.12C33.34 2.12 33.56 1.88 33.64 1.64L30 0.879999C29.88 1.72 29.58 3.08 29.22 4.6H25.66L25.82 5.16H29.08C28.82 6.22 28.52 7.34 28.22 8.4H24.5L24.66 8.96H28.06C27.8 9.9 27.52 10.78 27.28 11.48C27 11.64 26.76 11.82 26.58 11.98L29.22 13.5L30.24 12.28H33.48C33.18 13.24 32.72 14.46 32.26 15.52C30.98 15.1 29.24 14.84 26.98 14.92L26.86 15.12C29.22 16.04 32.12 18 33.54 19.8C35.7 20.3 36.4 17.5 33.24 15.92C34.58 15.02 35.98 13.92 36.9 13.02C37.36 12.98 37.56 12.92 37.74 12.72L35.04 10.14L33.4 11.72H30.26L31.04 8.96H38.22C38.52 8.96 38.74 8.86 38.8 8.64C37.86 7.78 36.24 6.48 36.24 6.48L34.84 8.4H31.18L32.04 5.16H37.1C37.4 5.16 37.62 5.06 37.66 4.84C36.78 4.02 35.26 2.82 35.26 2.82ZM25.02 7.06L24.06 6.72C24.84 5.48 25.5 4.08 26.1 2.5C26.58 2.5 26.82 2.34 26.92 2.08L22.88 0.919999C22.26 4.8 20.78 8.88 19.32 11.46L19.52 11.6C20.22 11.1 20.88 10.56 21.5 9.94V19.94H22.04C23.18 19.94 24.36 19.34 24.4 19.12V7.46C24.8 7.38 24.96 7.24 25.02 7.06ZM42.08 0.98L41.92 1.08C42.56 1.98 43.18 3.32 43.3 4.56C45.72 6.42 48.18 1.78 42.08 0.98ZM47.28 3.32L45.94 5.12H39.54L39.7 5.68H41.5C41.68 10.46 41.58 15.7 39.32 19.78L39.48 19.94C42.8 17.22 43.82 13.22 44.16 9.04H45.56C45.42 14.14 45.2 16.36 44.66 16.84C44.5 16.98 44.32 17.04 44.04 17.04C43.68 17.04 42.86 17 42.34 16.96V17.2C43.04 17.38 43.44 17.66 43.7 18.04C43.94 18.38 43.98 19 43.98 19.82C45.08 19.82 45.92 19.56 46.6 18.98C47.68 18.04 48 16.04 48.18 9.5C48.62 9.42 48.86 9.28 49.02 9.1L46.72 7.14L45.36 8.48H44.2C44.26 7.54 44.3 6.62 44.32 5.68H49.1C49.38 5.68 49.6 5.58 49.66 5.36C48.78 4.54 47.28 3.32 47.28 3.32ZM54.28 1.68L50.36 0.9C50.18 4.52 49.38 8.44 48.38 11.12L48.6 11.24C49.5 10.44 50.26 9.52 50.94 8.46C51.2 10.52 51.56 12.4 52.12 14.08C50.98 16.24 49.28 18.16 46.82 19.72L46.94 19.9C49.56 19.02 51.54 17.76 53.04 16.26C53.8 17.74 54.82 18.98 56.14 19.96C56.48 18.62 57.24 17.82 58.62 17.5L58.68 17.3C57.04 16.56 55.66 15.62 54.54 14.42C56.16 12.04 56.96 9.2 57.32 6.16H58.14C58.44 6.16 58.66 6.06 58.7 5.84C57.78 4.98 56.2 3.7 56.2 3.7L54.82 5.6H52.4C52.84 4.54 53.2 3.4 53.52 2.16C53.98 2.14 54.22 1.94 54.28 1.68ZM52.16 6.16H54.16C54.02 8.28 53.66 10.34 52.94 12.28C52.2 11.02 51.66 9.56 51.28 7.92C51.6 7.36 51.9 6.78 52.16 6.16ZM67.72 1.24L67.56 1.36C68.74 2.88 69.86 5 70.2 6.96C73.1 9.18 75.46 3.22 67.72 1.24ZM68.02 4.9L64.42 4.56V16.3C64.42 18.52 65.3 18.96 67.9 18.96H70.3C74.5 18.96 75.64 18.32 75.64 17C75.64 16.44 75.4 16.1 74.56 15.76L74.48 12.66H74.28C73.76 14.14 73.34 15.2 73.02 15.64C72.84 15.88 72.62 15.96 72.28 15.98C71.9 16 71.28 16.02 70.6 16.02H68.34C67.58 16.02 67.32 15.88 67.32 15.4V5.44C67.82 5.38 68 5.16 68.02 4.9ZM73.82 7.38L73.66 7.52C75.2 9.82 75.62 12.94 75.64 15C77.82 18.04 82.14 12 73.82 7.38ZM62.24 6.88L62.02 6.9C62.08 9.56 61.04 11.9 60.06 12.78C59.44 13.4 59.28 14.26 59.86 14.96C60.56 15.74 61.88 15.74 62.6 14.62C63.66 13.14 64.06 10.58 62.24 6.88ZM95.26 2.82L93.94 4.6H92.18L92.8 2.12C93.34 2.12 93.56 1.88 93.64 1.64L90 0.879999C89.88 1.72 89.58 3.08 89.22 4.6H85.66L85.82 5.16H89.08C88.82 6.22 88.52 7.34 88.22 8.4H84.5L84.66 8.96H88.06C87.8 9.9 87.52 10.78 87.28 11.48C87 11.64 86.76 11.82 86.58 11.98L89.22 13.5L90.24 12.28H93.48C93.18 13.24 92.72 14.46 92.26 15.52C90.98 15.1 89.24 14.84 86.98 14.92L86.86 15.12C89.22 16.04 92.12 18 93.54 19.8C95.7 20.3 96.4 17.5 93.24 15.92C94.58 15.02 95.98 13.92 96.9 13.02C97.36 12.98 97.56 12.92 97.74 12.72L95.04 10.14L93.4 11.72H90.26L91.04 8.96H98.22C98.52 8.96 98.74 8.86 98.8 8.64C97.86 7.78 96.24 6.48 96.24 6.48L94.84 8.4H91.18L92.04 5.16H97.1C97.4 5.16 97.62 5.06 97.66 4.84C96.78 4.02 95.26 2.82 95.26 2.82ZM85.02 7.06L84.06 6.72C84.84 5.48 85.5 4.08 86.1 2.5C86.58 2.5 86.82 2.34 86.92 2.08L82.88 0.919999C82.26 4.8 80.78 8.88 79.32 11.46L79.52 11.6C80.22 11.1 80.88 10.56 81.5 9.94V19.94H82.04C83.18 19.94 84.36 19.34 84.4 19.12V7.46C84.8 7.38 84.96 7.24 85.02 7.06Z" fill="#181C32"/>
</svg>
